HIERARCHY
ROOT RootJoint
{
    OFFSET   0.000000   0.000000   0.000000
    CHANNELS 6 Xposition Yposition Zposition Xrotation Yrotation Zrotation
    JOINT pelvis_lowerback
    {
        OFFSET   0.000000   0.093605   0.000000
        CHANNELS 3 Xrotation Yrotation Zrotation
        JOINT lowerback_torso
        {
            OFFSET   0.000000   0.100000   0.000000
            CHANNELS 3 Xrotation Yrotation Zrotation
            JOINT torso_head
            {
                OFFSET   0.000000   0.282350   0.000000
                CHANNELS 3 Xrotation Yrotation Zrotation
                End Site
                {
                    OFFSET   0.000000   0.192650   0.000000
                }
            }
            JOINT rTorso_Clavicle
            {
                OFFSET  -0.001000   0.157500   0.000000
                CHANNELS 3 Xrotation Yrotation Zrotation
                JOINT rShoulder
                {
                    OFFSET  -0.117647   0.000000   0.000000
                    CHANNELS 3 Xrotation Yrotation Zrotation
                    JOINT rElbow
                    {
                        OFFSET  -0.245000   0.000000   0.000000
                        CHANNELS 3 Xrotation Yrotation Zrotation
                        JOINT rWrist
                        {
                            OFFSET  -0.240000   0.000000   0.000000
                            CHANNELS 3 Xrotation Yrotation Zrotation
                            End Site
                            {
                                OFFSET  -0.116353  -0.002500   0.000000
                            }
                        }
                    }
                }
            }
            JOINT lTorso_Clavicle
            {
                OFFSET   0.001000   0.157500   0.000000
                CHANNELS 3 Xrotation Yrotation Zrotation
                JOINT lShoulder
                {
                    OFFSET   0.117647   0.000000   0.000000
                    CHANNELS 3 Xrotation Yrotation Zrotation
                    JOINT lElbow
                    {
                        OFFSET   0.245000   0.000000   0.000000
                        CHANNELS 3 Xrotation Yrotation Zrotation
                        JOINT lWrist
                        {
                            OFFSET   0.240000   0.000000   0.000000
                            CHANNELS 3 Xrotation Yrotation Zrotation
                            End Site
                            {
                                OFFSET   0.116353  -0.002500   0.000000
                            }
                        }
                    }
                }
            }
        }
    }
    JOINT rHip
    {
        OFFSET  -0.100000  -0.051395   0.000000
        CHANNELS 3 Xrotation Yrotation Zrotation
        JOINT rKnee
        {
            OFFSET   0.000000  -0.410000   0.000000
            CHANNELS 3 Xrotation Yrotation Zrotation
            JOINT rAnkle
            {
                OFFSET   0.000000  -0.390000   0.000000
                CHANNELS 3 Xrotation Yrotation Zrotation
                JOINT rToeJoint
                {
                    OFFSET   0.000000  -0.050000   0.130000
                    CHANNELS 3 Xrotation Yrotation Zrotation
                    End Site
                    {
                        OFFSET  -0.010000   0.002000   0.060000
                    }
                }
            }
        }
    }
    JOINT lHip
    {
        OFFSET   0.100000  -0.051395   0.000000
        CHANNELS 3 Xrotation Yrotation Zrotation
        JOINT lKnee
        {
            OFFSET   0.000000  -0.410000   0.000000
            CHANNELS 3 Xrotation Yrotation Zrotation
            JOINT lAnkle
            {
                OFFSET   0.000000  -0.390000   0.000000
                CHANNELS 3 Xrotation Yrotation Zrotation
                JOINT lToeJoint
                {
                    OFFSET   0.000000  -0.050000   0.130000
                    CHANNELS 3 Xrotation Yrotation Zrotation
                    End Site
                    {
                        OFFSET   0.010000   0.002000   0.060000
                    }
                }
            }
        }
    }
}
MOTION
Frames: 15
Frame Time:   0.008333
 -2.376719   0.925631   3.975860   0.000000   0.000000   0.000000   0.000000   0.000000   0.000000   0.000000   0.000000   0.000000   0.000000   0.000000   0.000000   0.000000   0.000000   0.000000   0.000000   0.000000   0.000000   0.000000   0.000000   0.000000   0.000000   0.000000   0.000000   0.000000   0.000000   0.000000   0.000000   0.000000   0.000000   0.000000   0.000000   0.000000   0.000000   0.000000   0.000000   0.000000   0.000000   0.000000   0.000000   0.000000   0.000000   0.000000   0.000000   0.000000   0.000000   0.000000   0.000000   0.000000   0.000000   0.000000   0.000000   0.000000   0.000000   0.000000   0.000000   0.000000   0.000000   0.000000   0.000000
 -2.375952   0.926140   3.974531  -0.006223   0.580025   0.052098  -0.068838  -0.160454  -0.024109   0.371505   0.052803   0.192747  -0.055500   0.627947   0.165769  -0.238978  -0.795279   0.102330   0.625590   0.151373   2.109479   0.007892   0.371005  -0.002233   0.386555  -0.108558  -2.613499  -0.544412  -0.095932  -0.721130   0.109245  -1.051689  -1.700152   0.031653  -1.651014  -0.001480   0.260697   1.331196   2.494509  -1.631127  -0.034216  -0.047679   3.694878   0.000143   0.017555  -2.791467   0.447450   0.813662  -1.027251   0.007585  -0.008866  -0.614476  -0.199559  -0.350797   2.754616   0.007296   0.008920  -3.710975  -0.318734   0.465020   0.771759  -0.001258   0.000515
 -2.374838   0.926879   3.973264  -0.174110   1.586847   0.086632  -0.100921  -0.532999   0.028762   0.838021  -0.144416   0.436435  -0.062802   1.258159   0.365258  -0.449839  -1.606666   0.881868   1.231722   0.284728   4.761949   0.017753   0.718024  -0.003784   0.793839  -0.159765  -4.516927  -1.071072  -0.476985  -2.183282   0.155013  -2.320060  -3.890206   0.074137  -3.342603  -0.003195   0.513225   1.839546   4.190323  -3.435648  -0.051195  -0.034736   7.520166   0.001448   0.047076  -5.394523   0.837468   1.588855  -2.036674   0.014100  -0.019035  -0.815539  -0.393345  -0.879762   5.857680   0.020958   0.027620  -7.185061  -0.650765   0.866641   1.314551  -0.000775   0.002817
 -2.373575   0.927399   3.972049  -0.354033   2.806834   0.090730  -0.159227  -1.055853   0.138486   1.276616  -0.522264   0.713434  -0.071029   1.850995   0.567707  -0.631844  -2.389205   2.105952   1.815567   0.427716   7.759364   0.027184   1.039035  -0.004630   1.189536  -0.204462  -5.605647  -1.578662  -1.006629  -4.076051   0.133105  -3.654599  -6.327779   0.115261  -4.983896  -0.005229   0.767073   1.898207   5.024616  -5.454219  -0.057047   0.049817  11.092761   0.004598   0.075708  -7.826715   1.169386   2.327675  -2.958422   0.019068  -0.027468  -0.701970  -0.568847  -1.498187   9.081951   0.038818   0.047882 -10.419896  -0.983352   1.218192   1.821185   0.000389   0.005498
 -2.372234   0.927359   3.970837  -0.507774   4.107441   0.061428  -0.239448  -1.677371   0.293462   1.668895  -1.016723   1.027236  -0.090360   2.404859   0.758949  -0.783576  -3.143735   3.639737   2.353550   0.582828  10.847830   0.034931   1.335794  -0.004907   1.570950  -0.245902  -6.011341  -2.068527  -1.606520  -6.202471   0.046697  -4.990568  -8.871595   0.149326  -6.551011  -0.006730   1.017573   1.720316   5.233242  -7.704028  -0.061232   0.190147  14.369282   0.008996   0.098068 -10.103258   1.448918   3.031616  -3.815548   0.022727  -0.033728  -0.327461  -0.735890  -2.158573  12.392402   0.059181   0.064884 -13.433583  -1.312079   1.528881   2.291980   0.001873   0.007740
 -2.370852   0.926499   3.969625  -0.625425   5.411876   0.002727  -0.334299  -2.364143   0.484724   2.021815  -1.587483   1.371978  -0.118847   2.921666   0.938032  -0.904668  -3.873955   5.341669   2.848675   0.746311  13.927019   0.040592   1.609422  -0.004788   1.936731  -0.286878  -5.954178  -2.542100  -2.233045  -8.426259  -0.097503  -6.294070 -11.426469   0.174306  -8.035403  -0.007130   1.259604   1.413745   5.035681 -10.166356  -0.070294   0.364458  17.350926   0.013678   0.112807 -12.234135   1.681931   3.701105  -4.612671   0.025195  -0.037818   0.307623  -0.905121  -2.836946  15.647503   0.079249   0.075515 -16.239469  -1.634502   1.804766   2.734733   0.003480   0.009305
 -2.369449   0.924638   3.968447  -0.727630   6.697159  -0.077153  -0.421690  -3.103669   0.704806   2.352389  -2.216585   1.742020  -0.152408   3.403487   1.105230  -0.994943  -4.583390   7.114871   3.304575   0.912425  16.933651   0.044152   1.860342  -0.004398   2.286021  -0.334339  -5.601015  -3.003168  -2.867272 -10.655733  -0.292495  -7.550887 -13.930335   0.190304  -9.436570  -0.006239   1.490963   1.030337   4.596643 -12.765715  -0.089245   0.550652  20.038303   0.017938   0.120729 -14.228598   1.874124   4.336110  -5.351742   0.026618  -0.040118   1.199521  -1.086439  -3.521505  18.787604   0.097270   0.079906 -18.852761  -1.948906   2.049810   3.148282   0.005060   0.010212
 -2.368349   0.921148   3.966674  -0.742516   7.506725  -0.253752  -0.335744  -3.253766   1.047910   2.643792  -2.801445   2.078466  -0.229539   3.580811   1.024954  -0.884247  -5.069191   8.289333   3.928286   0.700610  19.792406   0.034637   1.842878  -0.003326   2.444692   0.056289  -4.105221  -3.201556  -3.442945 -11.915917  -0.566203  -9.223190 -16.720864   0.204421 -11.060676   0.002738   1.587520   0.744158   3.453314 -15.842941  -0.006921   0.844629  22.868743   0.021501   0.120436 -15.247652   2.030850   5.031543  -5.581826   0.023319  -0.034368   2.592660  -1.104272  -3.971754  20.356882   0.092348   0.069849 -21.373299  -2.350563   2.243481   3.563493   0.006018   0.009692
 -2.367504   0.916239   3.964471  -0.717132   8.340612  -0.444609  -0.141560  -3.439740   1.380909   2.974864  -3.407653   2.404818  -0.291452   3.742691   0.930724  -0.773623  -5.528220   9.198465   4.526950   0.504844  22.339194   0.026418   1.804594  -0.002300   2.581579   0.332421  -2.674811  -3.441268  -4.064457 -12.864404  -0.916269 -10.859089 -19.200825   0.207418 -12.622249   0.012463   1.707130   0.226811   2.426353 -19.043491   0.034697   1.096696  25.440870   0.024835   0.117757 -16.188860   2.161062   5.683297  -5.716374   0.019692  -0.028884   4.016989  -1.158491  -4.291496  21.667629   0.084903   0.061062 -23.738637  -2.734137   2.407872   3.907655   0.006206   0.009082
 -2.366839   0.910047   3.962100  -0.684731   9.183857  -0.627133   0.128484  -3.669654   1.691536   3.342583  -4.031533   2.717582  -0.330351   3.894479   0.839709  -0.668618  -5.967589   9.917311   5.094753   0.332989  24.625361   0.019909   1.762771  -0.001464   2.701347   0.543431  -1.471876  -3.718579  -4.697802 -13.602259  -1.327961 -12.420718 -21.426173   0.203343 -14.101581   0.021345   1.834494  -0.398690   1.657508 -22.259950   0.063944   1.288186  27.753293   0.027593   0.113196 -17.070405   2.270556   6.293700  -5.835687   0.016576  -0.024380   5.460335  -1.227006  -4.519504  22.883184   0.077354   0.053898 -25.947419  -3.095662   2.548063   4.220279   0.006061   0.008540
 -2.366313   0.902678   3.959740  -0.652849  10.000111  -0.796068   0.441744  -3.925368   1.980381   3.730736  -4.656335   3.013028  -0.350679   4.036286   0.753638  -0.564542  -6.394861  10.492626   5.634830   0.175813  26.691558   0.014760   1.717333  -0.000800   2.808284   0.701723  -0.469554  -4.019794  -5.316379 -14.192664  -1.784689 -13.891405 -23.449662   0.195127 -15.495320   0.028619   1.961731  -1.068694   1.098769 -25.444276   0.086992   1.427576  29.838612   0.029363   0.106839 -17.895778   2.362770   6.865197  -5.943741   0.013933  -0.020651   6.918217  -1.304544  -4.679077  24.034175   0.070108   0.047792 -28.008427  -3.435720   2.667940   4.508586   0.005741   0.007977
 -2.365902   0.894219   3.957497  -0.624686  10.763188  -0.950034   0.776007  -4.192899   2.247215   4.126366  -5.269159   3.288134  -0.358157   4.168637   0.672983  -0.457334  -6.814624  10.958183   6.150607   0.026395  28.569341   0.010674   1.667342  -0.000285   2.905206   0.807081   0.375292  -4.331511  -5.903493 -14.679759  -2.271495 -15.262574 -25.309944   0.184651 -16.803176   0.034050   2.084949  -1.746134   0.689319 -28.564142   0.104377   1.530781  31.726748   0.029956   0.099079 -18.668064   2.440420   7.400197  -6.042193   0.011706  -0.017529   8.380707  -1.388803  -4.788271  25.129578   0.063254   0.042332 -29.931277  -3.755421   2.770573   4.774936   0.005334   0.007345
 -2.365591   0.884744   3.955431  -0.602512  11.458085  -1.088425   1.117591  -4.463188   2.490713   4.521382  -5.862005   3.540328  -0.357379   4.292088   0.597758  -0.344689  -7.228353  11.338884   6.644650  -0.118876  30.283576   0.007435   1.612590   0.000100   2.994449   0.860146   1.097383  -4.642897  -6.450666 -15.094371  -2.775922 -16.531924 -27.034976   0.173112 -18.026856   0.037710   2.202406  -2.408379   0.381722 -31.595453   0.114964   1.613909  33.443036   0.029406   0.090453 -19.390343   2.505825   7.900996  -6.132463   0.009842  -0.014897   9.834458  -1.477678  -4.862262  26.173009   0.056819   0.037300 -31.725252  -4.055885   2.858391   5.020704   0.004894   0.006645
 -2.366017   0.874280   3.953308  -0.346301  12.237521  -1.349033   1.513465  -4.950212   2.655739   4.642174  -6.433834   3.824847  -0.500765   4.341781   0.651032  -0.387480  -7.651550  11.438476   7.107594  -0.233345  31.832267   0.007612   1.721807  -0.000194   3.011728   0.706095   1.962151  -4.805740  -6.801487 -15.008879  -3.144900 -17.742220 -28.595740   0.162299 -19.342779   0.044290   2.400704  -3.001384  -0.226574 -34.883510  -0.089410   1.664988  35.568084   0.029211   0.084456 -19.330044   2.307430   8.246517  -6.079369   0.007612  -0.011670  11.351503  -1.484236  -4.516259  25.456413   0.042304   0.025902 -31.978220  -4.126119   3.123463   5.247048   0.003589   0.006825
 -2.366894   0.862969   3.951129  -0.039930  13.108548  -1.651672   1.947144  -5.454281   2.782595   4.731025  -6.990610   4.090098  -0.648963   4.377368   0.705884  -0.431240  -8.045621  11.404570   7.540171  -0.334979  33.193247   0.007263   1.826040  -0.000425   3.017882   0.559013   2.675816  -5.002265  -7.122589 -14.754945  -3.530568 -18.864321 -29.943363   0.149294 -20.576724   0.047705   2.600711  -3.599479  -0.695937 -38.050108  -0.291762   1.638475  37.621056   0.029746   0.080337 -19.261363   2.119534   8.568619  -5.987004   0.005699  -0.008821  12.664643  -1.487127  -3.911661  24.481722   0.031234   0.013839 -32.206342  -4.186264   3.374704   5.569235   0.001785   0.007843
